<svg width="41" height="40" viewBox="0 0 41 40" fill="none" xmlns="http://www.w3.org/2000/svg">
<g clip-path="url(#clip0_675_2076)">
<path d="M4.08333 7.19667L3.32667 7.20167C3.07667 7.21001 2.82167 7.22334 2.57333 7.26834C2.19803 7.32765 1.84218 7.47522 1.53504 7.69891C1.2279 7.92259 0.978268 8.21601 0.806667 8.55501C0.69 8.78501 0.616667 9.01834 0.573333 9.27167C0.526667 9.51834 0.511667 9.77167 0.506667 10.0217L0.5 10.37V29.6317C0.5 29.7472 0.501667 29.8622 0.505 29.9767C0.511667 30.2267 0.526667 30.4817 0.571667 30.73C0.615 30.9789 0.693889 31.2172 0.808333 31.445C1.03853 31.8972 1.40614 32.2648 1.85833 32.495C2.08833 32.6117 2.32167 32.6867 2.575 32.7317C2.82167 32.7767 3.075 32.7917 3.325 32.7983L3.67167 32.8033H37.3283L37.6733 32.7983C37.9233 32.7917 38.1783 32.7767 38.4267 32.7317C38.675 32.6867 38.9117 32.6133 39.14 32.4967C39.5938 32.2673 39.9623 31.8988 40.1917 31.445C40.3083 31.215 40.3833 30.9817 40.4267 30.7283C40.4717 30.4817 40.4867 30.2283 40.4933 29.9783C40.4967 29.8628 40.4983 29.7472 40.4983 29.6317L40.5 29.2217V10.3683C40.5 10.2528 40.4978 10.1378 40.4933 10.0233C40.4902 9.77091 40.4679 9.51908 40.4267 9.27001C40.346 8.76851 40.1093 8.30519 39.7503 7.94586C39.3912 7.58653 38.9281 7.34947 38.4267 7.26834C38.1776 7.22713 37.9258 7.20485 37.6733 7.20167C37.4217 7.19483 37.17 7.19316 36.9183 7.19667H4.08333ZM4.08333 8.05001H37.32C37.4289 8.05001 37.5383 8.05167 37.6483 8.05501C37.84 8.06167 38.065 8.07167 38.2733 8.10834C38.455 8.14167 38.6067 8.19167 38.7517 8.26501C39.0438 8.4137 39.2813 8.65119 39.43 8.94334C39.5063 9.09446 39.5591 9.25631 39.5867 9.42334C39.6233 9.62834 39.6333 9.85334 39.6383 10.0467C39.6417 10.1545 39.6433 10.2639 39.6433 10.375V29.6283C39.6433 29.7361 39.6417 29.845 39.6383 29.955C39.6333 30.1467 39.6233 30.3717 39.585 30.58C39.5485 30.8251 39.4538 31.0579 39.3088 31.2589C39.1639 31.4599 38.9728 31.6231 38.7517 31.735C38.6016 31.811 38.4409 31.8638 38.275 31.8917C38.0691 31.9224 37.8615 31.9402 37.6533 31.945L37.32 31.95H3.67667C3.56556 31.95 3.45667 31.9483 3.35 31.945C3.14076 31.9403 2.93201 31.9225 2.725 31.8917C2.54333 31.8583 2.39167 31.8083 2.245 31.735C1.95135 31.589 1.71367 31.3507 1.56833 31.0567C1.49204 30.9056 1.43921 30.7437 1.41167 30.5767C1.37838 30.3711 1.36055 30.1633 1.35833 29.955L1.355 29.6267V10.3733L1.35833 10.045C1.365 9.85501 1.375 9.63167 1.41167 9.42001C1.445 9.24001 1.495 9.08834 1.56833 8.94167C1.71731 8.65014 1.95477 8.41326 2.24667 8.26501C2.39726 8.18887 2.55854 8.13605 2.725 8.10834C2.93333 8.07167 3.15833 8.06001 3.35 8.05501L3.67667 8.05001H4.08333ZM11.9333 14.2167C11.4333 14.2433 10.82 14.5483 10.4667 14.9767C10.1483 15.3433 9.86667 15.9433 9.94 16.5067C10.5033 16.5567 11.065 16.225 11.42 15.81C11.7617 15.38 11.995 14.805 11.9333 14.2183V14.2167ZM15.6117 14.9167V24.0717H17.0317V20.9433H18.9983C20.795 20.9433 22.0567 19.7117 22.0567 17.9233C22.0567 16.14 20.82 14.915 19.0433 14.915L15.6117 14.9167ZM17.0317 16.115H18.6683C19.9 16.115 20.6033 16.775 20.6033 17.93C20.6033 19.0833 19.9 19.75 18.6633 19.75H17.0317V16.115ZM11.775 16.615C11.025 16.6317 10.3917 17.0817 10.025 17.0817C9.63333 17.0817 9.03667 16.6417 8.39 16.6533C7.9695 16.6645 7.55919 16.7852 7.19965 17.0036C6.84011 17.2219 6.54379 17.5304 6.34 17.8983C5.46167 19.4117 6.10833 21.6567 6.96333 22.89C7.37833 23.5 7.87833 24.1717 8.53667 24.1467C9.15833 24.1233 9.40333 23.7433 10.1583 23.7433C10.915 23.7433 11.135 24.1467 11.7917 24.135C12.475 24.1233 12.9033 23.525 13.3167 22.9133C13.7933 22.2183 13.9883 21.5467 14 21.5117C13.9883 21.4983 12.6833 20.9983 12.6717 19.4967C12.6583 18.24 13.6967 17.6417 13.745 17.605C13.1583 16.7383 12.245 16.6417 11.9283 16.6167L11.775 16.615ZM25.4483 17.2767C23.7983 17.2767 22.7717 18.165 22.695 19.37H23.99C24.11 18.7733 24.605 18.3933 25.3983 18.3933C26.235 18.3933 26.7367 18.8367 26.7367 19.5783V20.0933L24.9083 20.2C23.3233 20.29 22.4283 21.0067 22.4283 22.1733C22.4283 23.3733 23.3417 24.185 24.6483 24.185C25.525 24.185 26.3683 23.7167 26.755 22.9733H26.7867V24.0717H28.1V19.4717C28.1 18.1333 27.0667 17.2767 25.4483 17.2767ZM28.6817 17.3967L31.0917 24.0783C31.0917 24.0833 30.97 24.4783 30.97 24.49C30.7617 25.1733 30.42 25.4417 29.785 25.4417C29.67 25.4417 29.4417 25.4417 29.34 25.4167V26.5267C29.44 26.545 29.785 26.5583 29.8983 26.5583C31.2817 26.5583 31.9417 26.0383 32.5117 24.42L35.0117 17.3967H33.565L31.8783 22.8283H31.8533L30.165 17.395L28.6817 17.3967ZM26.7367 21.045V21.5717C26.7367 22.44 25.9867 23.1 25.03 23.1C24.2933 23.1 23.8117 22.72 23.8117 22.135C23.8117 21.565 24.275 21.2017 25.0933 21.1467L26.7367 21.045Z" fill="black"/>
</g>
<defs>
<clipPath id="clip0_675_2076">
<rect width="40" height="40" fill="white" transform="translate(0.5)"/>
</clipPath>
</defs>
</svg>
