<svg width="32" height="32" viewBox="0 0 32 32" fill="none" xmlns="http://www.w3.org/2000/svg">
<rect width="32" height="32" rx="16" fill="#07061F"/>
<path d="M20.7581 8.51763C20.8354 8.43176 20.8958 8.33074 20.9359 8.22035C20.976 8.10996 20.995 7.99236 20.9918 7.87426C20.9886 7.75615 20.9633 7.63986 20.9173 7.53203C20.8714 7.4242 20.8056 7.32693 20.7239 7.24578C20.6421 7.16463 20.546 7.10119 20.4409 7.05908C20.3358 7.01697 20.2238 6.99702 20.1114 7.00036C19.9989 7.0037 19.8882 7.03027 19.7855 7.07855C19.6829 7.12684 19.5903 7.19589 19.513 7.28176L12.2341 15.377C12.0838 15.544 12 15.7651 12 15.9949C12 16.2248 12.0838 16.4459 12.2341 16.6129L19.513 24.709C19.5898 24.7968 19.6823 24.8676 19.7854 24.9175C19.8884 24.9674 19.9999 24.9952 20.1132 24.9994C20.2266 25.0037 20.3397 24.9842 20.4458 24.9421C20.552 24.9001 20.6491 24.8363 20.7316 24.7545C20.8141 24.6727 20.8803 24.5745 20.9263 24.4656C20.9723 24.3567 20.9973 24.2392 20.9998 24.1201C21.0023 24.001 20.9822 23.8825 20.9407 23.7716C20.8992 23.6607 20.8372 23.5596 20.7581 23.4741L14.0341 15.9949L20.7581 8.51763Z" fill="white" stroke="white" stroke-width="0.5"/>
</svg>
