<svg width="24" height="25" viewBox="0 0 24 25" fill="none" xmlns="http://www.w3.org/2000/svg">
<path d="M8.24186 19.9824C8.1646 20.0682 8.1042 20.1693 8.06411 20.2796C8.02402 20.39 8.00503 20.5076 8.00821 20.6257C8.01139 20.7438 8.03668 20.8601 8.08265 20.968C8.12862 21.0758 8.19436 21.1731 8.27611 21.2542C8.35787 21.3354 8.45404 21.3988 8.55914 21.4409C8.66424 21.483 8.7762 21.503 8.88864 21.4996C9.00108 21.4963 9.1118 21.4697 9.21446 21.4214C9.31712 21.3732 9.40973 21.3041 9.48699 21.2182L16.7659 13.123C16.9162 12.956 17 12.7349 17 12.5051C17 12.2752 16.9162 12.0541 16.7659 11.8871L9.48699 3.79097C9.41024 3.70322 9.31765 3.63235 9.21461 3.5825C9.11157 3.53265 9.00013 3.5048 8.88675 3.50057C8.77337 3.49633 8.66033 3.51581 8.55418 3.55786C8.44803 3.5999 8.35089 3.66368 8.26841 3.74549C8.18592 3.82731 8.11974 3.92551 8.0737 4.03442C8.02765 4.14333 8.00267 4.26075 8.0002 4.37989C7.99773 4.49902 8.01782 4.61748 8.05931 4.72839C8.10079 4.8393 8.16284 4.94044 8.24186 5.02594L14.9659 12.5051L8.24186 19.9824Z" fill="#906433" stroke="#906433" stroke-width="0.5"/>
</svg>
