<svg width="24" height="24" viewBox="0 0 24 24" fill="none" xmlns="http://www.w3.org/2000/svg">
<path d="M16.7581 4.51763C16.8354 4.43176 16.8958 4.33074 16.9359 4.22035C16.976 4.10996 16.995 3.99236 16.9918 3.87426C16.9886 3.75615 16.9633 3.63986 16.9173 3.53203C16.8714 3.4242 16.8056 3.32693 16.7239 3.24578C16.6421 3.16463 16.546 3.10119 16.4409 3.05908C16.3358 3.01697 16.2238 2.99702 16.1114 3.00036C15.9989 3.0037 15.8882 3.03027 15.7855 3.07855C15.6829 3.12684 15.5903 3.19589 15.513 3.28176L8.23408 11.377C8.08376 11.544 8 11.7651 8 11.9949C8 12.2248 8.08376 12.4459 8.23408 12.6129L15.513 20.709C15.5898 20.7968 15.6823 20.8676 15.7854 20.9175C15.8884 20.9674 15.9999 20.9952 16.1132 20.9994C16.2266 21.0037 16.3397 20.9842 16.4458 20.9421C16.552 20.9001 16.6491 20.8363 16.7316 20.7545C16.8141 20.6727 16.8803 20.5745 16.9263 20.4656C16.9723 20.3567 16.9973 20.2392 16.9998 20.1201C17.0023 20.001 16.9822 19.8825 16.9407 19.7716C16.8992 19.6607 16.8372 19.5596 16.7581 19.4741L10.0341 11.9949L16.7581 4.51763Z" fill="#E2BB86" stroke="#E2BB86" stroke-width="0.5"/>
</svg>
