<svg width="24" height="24" viewBox="0 0 24 24" fill="none" xmlns="http://www.w3.org/2000/svg">
<path d="M8.24186 19.4824C8.1646 19.5682 8.1042 19.6693 8.06411 19.7796C8.02402 19.89 8.00503 20.0076 8.00821 20.1257C8.01139 20.2438 8.03668 20.3601 8.08265 20.468C8.12862 20.5758 8.19436 20.6731 8.27611 20.7542C8.35787 20.8354 8.45404 20.8988 8.55914 20.9409C8.66424 20.983 8.7762 21.003 8.88864 20.9996C9.00108 20.9963 9.1118 20.9697 9.21446 20.9214C9.31712 20.8732 9.40973 20.8041 9.48699 20.7182L16.7659 12.623C16.9162 12.456 17 12.2349 17 12.0051C17 11.7752 16.9162 11.5541 16.7659 11.3871L9.48699 3.29097C9.41024 3.20322 9.31765 3.13235 9.21461 3.0825C9.11157 3.03265 9.00013 3.0048 8.88675 3.00057C8.77337 2.99633 8.66033 3.01581 8.55418 3.05786C8.44803 3.0999 8.35089 3.16368 8.26841 3.24549C8.18592 3.32731 8.11974 3.42551 8.0737 3.53442C8.02765 3.64333 8.00267 3.76075 8.0002 3.87989C7.99773 3.99902 8.01782 4.11748 8.05931 4.22839C8.10079 4.3393 8.16284 4.44044 8.24186 4.52594L14.9659 12.0051L8.24186 19.4824Z" fill="#8E8E93" stroke="#8E8E93" stroke-width="0.5"/>
</svg>
