<svg width="24" height="24" viewBox="0 0 24 24" fill="none" xmlns="http://www.w3.org/2000/svg">
<path d="M19.2 4.6581H16.911V3.6381C16.911 3.43123 16.8288 3.23283 16.6825 3.08656C16.5363 2.94028 16.3379 2.8581 16.131 2.8581C15.9241 2.8581 15.7257 2.94028 15.5795 3.08656C15.4332 3.23284 15.351 3.43123 15.351 3.6381V4.6581H8.8857V3.63C8.8857 3.42313 8.80352 3.22474 8.65724 3.07846L8.55118 3.18452L8.65724 3.07846C8.51096 2.93218 8.31257 2.85 8.1057 2.85C7.89902 2.85 7.7008 2.93203 7.55455 3.07806C7.4083 3.2241 7.326 3.42221 7.3257 3.62889V3.6291V4.6581H4.8C4.283 4.6581 3.78715 4.86341 3.42149 5.2289C3.05582 5.59438 2.85026 6.09012 2.85 6.60712V6.6072L2.85 19.2009L2.85 19.201C2.85026 19.718 3.05582 20.2137 3.42149 20.5792C3.78715 20.9447 4.283 21.15 4.8 21.15H19.2C19.717 21.15 20.2128 20.9447 20.5785 20.5792C20.9442 20.2137 21.1497 19.718 21.15 19.201V19.2009V6.6072V6.60713C21.1497 6.09012 20.9442 5.59438 20.5785 5.2289C20.2128 4.86341 19.717 4.6581 19.2 4.6581ZM19.59 8.57118L4.41 8.55882V6.6072C4.41 6.55598 4.42009 6.50527 4.43969 6.45795C4.45929 6.41064 4.48801 6.36764 4.52423 6.33143C4.56044 6.29521 4.60344 6.26649 4.65075 6.24689C4.69807 6.22729 4.74878 6.2172 4.8 6.2172H7.3257V6.8952C7.3257 7.10207 7.40788 7.30047 7.55416 7.44674C7.70043 7.59302 7.89883 7.6752 8.1057 7.6752C8.31257 7.6752 8.51096 7.59302 8.65724 7.44674C8.80352 7.30047 8.8857 7.10207 8.8857 6.8952V6.2172H15.351V6.9033C15.351 7.11017 15.4332 7.30856 15.5795 7.45484C15.7257 7.60112 15.9241 7.6833 16.131 7.6833C16.3379 7.6833 16.5363 7.60112 16.6825 7.45484C16.8288 7.30857 16.911 7.11017 16.911 6.9033V6.2172H19.2C19.2512 6.2172 19.3019 6.22729 19.3492 6.24689C19.3966 6.26649 19.4396 6.29521 19.4758 6.33143C19.512 6.36764 19.5407 6.41064 19.5603 6.45795C19.5799 6.50527 19.59 6.55598 19.59 6.6072V8.57118ZM4.41 19.2009V10.1179L19.59 10.1303V19.2009C19.59 19.2521 19.5799 19.3028 19.5603 19.3501C19.5407 19.3975 19.512 19.4405 19.4758 19.4767C19.4396 19.5129 19.3966 19.5416 19.3492 19.5612C19.3019 19.5808 19.2512 19.5909 19.2 19.5909H4.8C4.74878 19.5909 4.69807 19.5808 4.65075 19.5612C4.60344 19.5416 4.56044 19.5129 4.52423 19.4767C4.48801 19.4405 4.45929 19.3975 4.43969 19.3501C4.42009 19.3028 4.41 19.2521 4.41 19.2009Z" fill="#9D9D9D" stroke="#9D9D9D" stroke-width="0.3"/>
</svg>
