<svg width="24" height="25" viewBox="0 0 24 25" fill="none" xmlns="http://www.w3.org/2000/svg">
<path d="M19.2 5.1581H16.911V4.1381C16.911 3.93123 16.8288 3.73283 16.6825 3.58656C16.5363 3.44028 16.3379 3.3581 16.131 3.3581C15.9241 3.3581 15.7257 3.44028 15.5795 3.58656C15.4332 3.73284 15.351 3.93123 15.351 4.1381V5.1581H8.8857V4.13C8.8857 3.92313 8.80352 3.72474 8.65724 3.57846L8.55118 3.68452L8.65724 3.57846C8.51096 3.43218 8.31257 3.35 8.1057 3.35C7.89902 3.35 7.7008 3.43203 7.55455 3.57806C7.4083 3.7241 7.326 3.92221 7.3257 4.12889V4.1291V5.1581H4.8C4.283 5.1581 3.78715 5.36341 3.42149 5.7289C3.05582 6.09438 2.85026 6.59012 2.85 7.10712V7.1072L2.85 19.7009L2.85 19.701C2.85026 20.218 3.05582 20.7137 3.42149 21.0792C3.78715 21.4447 4.283 21.65 4.8 21.65H19.2C19.717 21.65 20.2128 21.4447 20.5785 21.0792C20.9442 20.7137 21.1497 20.218 21.15 19.701V19.7009V7.1072V7.10713C21.1497 6.59012 20.9442 6.09438 20.5785 5.7289C20.2128 5.36341 19.717 5.1581 19.2 5.1581ZM19.59 9.07118L4.41 9.05882V7.1072C4.41 7.05598 4.42009 7.00527 4.43969 6.95795C4.45929 6.91064 4.48801 6.86764 4.52423 6.83143C4.56044 6.79521 4.60344 6.76649 4.65075 6.74689C4.69807 6.72729 4.74878 6.7172 4.8 6.7172H7.3257V7.3952C7.3257 7.60207 7.40788 7.80047 7.55416 7.94674C7.70043 8.09302 7.89883 8.1752 8.1057 8.1752C8.31257 8.1752 8.51096 8.09302 8.65724 7.94674C8.80352 7.80047 8.8857 7.60207 8.8857 7.3952V6.7172H15.351V7.4033C15.351 7.61017 15.4332 7.80856 15.5795 7.95484C15.7257 8.10112 15.9241 8.1833 16.131 8.1833C16.3379 8.1833 16.5363 8.10112 16.6825 7.95484C16.8288 7.80857 16.911 7.61017 16.911 7.4033V6.7172H19.2C19.2512 6.7172 19.3019 6.72729 19.3492 6.74689C19.3966 6.76649 19.4396 6.79521 19.4758 6.83143C19.512 6.86764 19.5407 6.91064 19.5603 6.95795C19.5799 7.00527 19.59 7.05598 19.59 7.1072V9.07118ZM4.41 19.7009V10.6179L19.59 10.6303V19.7009C19.59 19.7521 19.5799 19.8028 19.5603 19.8501C19.5407 19.8975 19.512 19.9405 19.4758 19.9767C19.4396 20.0129 19.3966 20.0416 19.3492 20.0612C19.3019 20.0808 19.2512 20.0909 19.2 20.0909H4.8C4.74878 20.0909 4.69807 20.0808 4.65075 20.0612C4.60344 20.0416 4.56044 20.0129 4.52423 19.9767C4.48801 19.9405 4.45929 19.8975 4.43969 19.8501C4.42009 19.8028 4.41 19.7521 4.41 19.7009Z" fill="#E2BB86" stroke="#E2BB86" stroke-width="0.3"/>
</svg>
