<svg width="25" height="24" viewBox="0 0 25 24" fill="none" xmlns="http://www.w3.org/2000/svg">
<path d="M19.7 4.6581H17.411V3.6381C17.411 3.43123 17.3288 3.23283 17.1825 3.08656C17.0363 2.94028 16.8379 2.8581 16.631 2.8581C16.4241 2.8581 16.2257 2.94028 16.0795 3.08656C15.9332 3.23284 15.851 3.43123 15.851 3.6381V4.6581H9.3857V3.63C9.3857 3.42313 9.30352 3.22474 9.15724 3.07846L9.05118 3.18452L9.15724 3.07846C9.01096 2.93218 8.81257 2.85 8.6057 2.85C8.39902 2.85 8.2008 2.93203 8.05455 3.07806C7.9083 3.2241 7.826 3.42221 7.8257 3.62889V3.6291V4.6581H5.3C4.783 4.6581 4.28715 4.86341 3.92149 5.2289C3.55582 5.59438 3.35026 6.09012 3.35 6.60712V6.6072L3.35 19.2009L3.35 19.201C3.35026 19.718 3.55582 20.2137 3.92149 20.5792C4.28715 20.9447 4.783 21.15 5.3 21.15H19.7C20.217 21.15 20.7128 20.9447 21.0785 20.5792C21.4442 20.2137 21.6497 19.718 21.65 19.201V19.2009V6.6072V6.60713C21.6497 6.09012 21.4442 5.59438 21.0785 5.2289C20.7128 4.86341 20.217 4.6581 19.7 4.6581ZM20.09 8.57118L4.91 8.55882V6.6072C4.91 6.55598 4.92009 6.50527 4.93969 6.45795C4.95929 6.41064 4.98801 6.36764 5.02423 6.33143C5.06044 6.29521 5.10344 6.26649 5.15075 6.24689C5.19807 6.22729 5.24878 6.2172 5.3 6.2172H7.8257V6.8952C7.8257 7.10207 7.90788 7.30047 8.05416 7.44674C8.20043 7.59302 8.39883 7.6752 8.6057 7.6752C8.81257 7.6752 9.01096 7.59302 9.15724 7.44674C9.30352 7.30047 9.3857 7.10207 9.3857 6.8952V6.2172H15.851V6.9033C15.851 7.11017 15.9332 7.30856 16.0795 7.45484C16.2257 7.60112 16.4241 7.6833 16.631 7.6833C16.8379 7.6833 17.0363 7.60112 17.1825 7.45484C17.3288 7.30857 17.411 7.11017 17.411 6.9033V6.2172H19.7C19.7512 6.2172 19.8019 6.22729 19.8492 6.24689C19.8966 6.26649 19.9396 6.29521 19.9758 6.33143C20.012 6.36764 20.0407 6.41064 20.0603 6.45795C20.0799 6.50527 20.09 6.55598 20.09 6.6072V8.57118ZM4.91 19.2009V10.1179L20.09 10.1303V19.2009C20.09 19.2521 20.0799 19.3028 20.0603 19.3501C20.0407 19.3975 20.012 19.4405 19.9758 19.4767C19.9396 19.5129 19.8966 19.5416 19.8492 19.5612C19.8019 19.5808 19.7512 19.5909 19.7 19.5909H5.3C5.24878 19.5909 5.19807 19.5808 5.15075 19.5612C5.10344 19.5416 5.06044 19.5129 5.02423 19.4767C4.98801 19.4405 4.95929 19.3975 4.93969 19.3501C4.92009 19.3028 4.91 19.2521 4.91 19.2009Z" fill="#B18A53" stroke="#B18A53" stroke-width="0.3"/>
</svg>
