<svg width="24" height="24" viewBox="0 0 24 24" fill="none" xmlns="http://www.w3.org/2000/svg">
<path fill-rule="evenodd" clip-rule="evenodd" d="M20.6631 5.03365C20.8817 4.80733 21.0027 4.50421 21 4.18957C20.9972 3.87494 20.871 3.57396 20.6485 3.35147C20.426 3.12898 20.1251 3.00278 19.8104 3.00005C19.4958 2.99731 19.1927 3.11827 18.9663 3.33685L12.0147 10.2885L5.06315 3.33685C4.83682 3.11827 4.5337 2.99731 4.21906 3.00005C3.90443 3.00278 3.60345 3.12898 3.38096 3.35147C3.15847 3.57396 3.03227 3.87494 3.02954 4.18957C3.0268 4.50421 3.14776 4.80733 3.36635 5.03365L10.3179 11.9853L3.36635 18.9369C3.25173 19.0475 3.16032 19.18 3.09742 19.3264C3.03453 19.4728 3.00143 19.6302 3.00005 19.7896C2.99866 19.9489 3.02902 20.1069 3.08936 20.2544C3.1497 20.4019 3.2388 20.5359 3.35147 20.6485C3.46414 20.7612 3.59813 20.8503 3.7456 20.9106C3.89308 20.971 4.05109 21.0013 4.21043 21C4.36976 20.9986 4.52723 20.9655 4.67363 20.9026C4.82004 20.8397 4.95245 20.7483 5.06315 20.6337L12.0147 13.6821L18.9663 20.6337C19.1927 20.8522 19.4958 20.9732 19.8104 20.9705C20.1251 20.9677 20.426 20.8415 20.6485 20.619C20.871 20.3965 20.9972 20.0956 21 19.7809C21.0027 19.4663 20.8817 19.1632 20.6631 18.9369L13.7115 11.9853L20.6631 5.03365Z" fill="white"/>
</svg>
