<svg width="41" height="40" viewBox="0 0 41 40" fill="none" xmlns="http://www.w3.org/2000/svg">
<path d="M14.3697 10.3815C13.845 10.3815 13.4953 10.9061 13.4953 11.2559V15.628H11.7465V11.2559C11.7465 10.7313 11.3967 10.3815 10.872 10.3815C10.3474 10.3815 9.99763 10.9061 9.99763 11.2559V15.628H8.24882V11.2559C8.24882 10.7313 7.89905 10.3815 7.37441 10.3815C6.84976 10.3815 6.5 10.9061 6.5 11.2559V17.027C6.5 18.6009 7.72417 19.8251 9.12323 20V32.2417C9.12323 33.291 9.82275 33.9905 10.872 33.9905C11.9213 33.9905 12.6209 33.291 12.6209 32.2417V20C14.0199 19.8251 15.2441 18.6009 15.2441 17.027V11.2559C15.2441 10.9061 14.8943 10.3815 14.3697 10.3815ZM17.8673 11.2559V21.7488H19.6161V32.2417C19.6161 33.291 20.3157 33.9905 21.3649 33.9905C22.4142 33.9905 23.1138 33.291 23.1138 32.2417V6.00946C20.1408 6.00946 17.8673 8.28292 17.8673 11.2559ZM30.109 9.50709C27.6607 9.50709 25.737 12.1303 25.737 15.2782C25.5621 17.3768 26.6114 19.3005 28.3602 20.5246V32.2417C28.3602 33.291 29.0597 33.9905 30.109 33.9905C31.1583 33.9905 31.8578 33.291 31.8578 32.2417V20.5246C33.6067 19.3005 34.6559 17.3768 34.4811 15.2782C34.4811 12.1303 32.5574 9.50709 30.109 9.50709Z" fill="#B18A53"/>
</svg>
