<svg width="41" height="40" viewBox="0 0 41 40" fill="none" xmlns="http://www.w3.org/2000/svg">
<rect x="1.5" y="1" width="38" height="38" rx="19" stroke="#B18A53" stroke-width="2"/>
<path d="M21.0502 17.3758L29.25 20.3043V32.2508C29.25 32.4828 29.1578 32.7054 28.9937 32.8695C28.8296 33.0336 28.6071 33.1258 28.375 33.1258H24.875C24.6429 33.1258 24.4204 33.0336 24.2563 32.8695C24.0922 32.7054 24 32.4828 24 32.2508V26.1258H15.25V32.2508C15.25 32.4828 15.1578 32.7054 14.9937 32.8695C14.8296 33.0336 14.6071 33.1258 14.375 33.1258H10.875C10.6429 33.1258 10.4204 33.0336 10.2563 32.8695C10.0922 32.7054 10 32.4828 10 32.2508V20.5526C7.96781 19.828 6.5 17.9041 6.5 15.6258C6.5 15.1616 6.68437 14.7165 7.01256 14.3883C7.34075 14.0601 7.78587 13.8758 8.25 13.8758C8.71413 13.8758 9.15925 14.0601 9.48744 14.3883C9.81563 14.7165 10 15.1616 10 15.6258C10.0009 16.0896 10.1855 16.5342 10.5135 16.8622C10.8415 17.1902 11.2861 17.3749 11.75 17.3758H21.0502ZM34.5 11.2508V13.0008C34.5 13.929 34.1313 14.8193 33.4749 15.4756C32.8185 16.132 31.9283 16.5008 31 16.5008H29.25V18.4466L22.25 15.9468V7.75077C22.25 6.97147 23.1917 6.581 23.7435 7.13225L25.2354 8.62577H28.1683C28.7649 8.62577 29.4671 9.05889 29.7334 9.59319L30.125 10.3758H33.625C33.8571 10.3758 34.0796 10.468 34.2437 10.6321C34.4078 10.7961 34.5 11.0187 34.5 11.2508ZM28.375 11.2508C28.375 11.0777 28.3237 10.9085 28.2275 10.7646C28.1314 10.6208 27.9947 10.5086 27.8348 10.4424C27.675 10.3761 27.499 10.3588 27.3293 10.3926C27.1596 10.4263 27.0037 10.5097 26.8813 10.6321C26.7589 10.7544 26.6756 10.9103 26.6418 11.0801C26.6081 11.2498 26.6254 11.4257 26.6916 11.5856C26.7578 11.7455 26.87 11.8822 27.0139 11.9783C27.1578 12.0745 27.3269 12.1258 27.5 12.1258C27.7321 12.1258 27.9546 12.0336 28.1187 11.8695C28.2828 11.7054 28.375 11.4828 28.375 11.2508Z" fill="#B18A53"/>
<path d="M6.5 6L34.7843 34.2843" stroke="#B18A53" stroke-width="2"/>
</svg>
