<svg width="24" height="25" viewBox="0 0 24 25" fill="none" xmlns="http://www.w3.org/2000/svg">
<path d="M11.528 4.44409H4.8951C4.39249 4.44409 3.91046 4.64375 3.55506 4.99915C3.19966 5.35456 3 5.83658 3 6.3392V19.6049C3 20.1075 3.19966 20.5896 3.55506 20.945C3.91046 21.3004 4.39249 21.5 4.8951 21.5H18.1608C18.6634 21.5 19.1455 21.3004 19.5009 20.945C19.8563 20.5896 20.0559 20.1075 20.0559 19.6049V12.9721" stroke="#636363" stroke-width="1.8" stroke-linecap="round" stroke-linejoin="round"/>
<path d="M17.5685 4.08873C17.9455 3.71177 18.4568 3.5 18.9899 3.5C19.523 3.5 20.0342 3.71177 20.4112 4.08873C20.7881 4.46569 20.9999 4.97696 20.9999 5.51006C20.9999 6.04316 20.7881 6.55443 20.4112 6.93139L11.8709 15.4726C11.6459 15.6974 11.3679 15.862 11.0626 15.9511L8.34032 16.7471C8.25878 16.7709 8.17236 16.7723 8.09008 16.7512C8.0078 16.7301 7.93271 16.6873 7.87265 16.6273C7.8126 16.5672 7.76979 16.4921 7.74871 16.4098C7.72763 16.3276 7.72906 16.2411 7.75284 16.1596L8.54878 13.4373C8.63835 13.1322 8.80323 12.8546 9.02824 12.63L17.5685 4.08873Z" stroke="#636363" stroke-width="1.8" stroke-linecap="round" stroke-linejoin="round"/>
</svg>
