<svg width="41" height="40" viewBox="0 0 41 40" fill="none" xmlns="http://www.w3.org/2000/svg">
<path d="M27.683 16.5985C28.5627 16.5985 29.2425 16.8494 29.7624 17.3513C30.2822 17.853 30.5221 18.5221 30.5221 19.3584V23.3728H29.4025V22.4529H29.3625C28.8826 23.2057 28.2028 23.582 27.4031 23.582C26.7233 23.582 26.1235 23.3729 25.6437 22.9548C25.2038 22.5366 24.9239 21.9512 24.9239 21.3239C24.9239 20.6548 25.1638 20.1112 25.6437 19.693C26.1235 19.2748 26.8033 19.1076 27.603 19.1076C28.3228 19.1076 28.8826 19.2331 29.3225 19.5258V19.2331C29.3225 18.8428 29.1831 18.4525 28.9045 18.1982L28.8426 18.1458C28.5227 17.8531 28.1228 17.6858 27.683 17.6858C27.0032 17.6858 26.4834 17.9786 26.1235 18.564L25.0839 17.8948C25.7236 17.0166 26.5634 16.5985 27.683 16.5985ZM22.0448 13.7549C22.7623 13.7549 23.4442 14.0161 23.9894 14.503L24.0842 14.5912C24.644 15.093 24.9239 15.8458 24.9239 16.6403C24.9239 17.4348 24.644 18.1457 24.0842 18.6893C23.5244 19.2329 22.8446 19.5256 22.0448 19.5256L20.1255 19.4838V23.3728H18.9258V13.7549H22.0448ZM27.8429 20.1111C27.3631 20.1111 26.9632 20.2366 26.6434 20.4875C26.3234 20.6965 26.1635 20.9892 26.1635 21.3656C26.1635 21.7001 26.3235 21.9928 26.5634 22.1601C26.8433 22.3692 27.1632 22.4946 27.4831 22.4946C27.9309 22.4946 28.3788 22.3125 28.7291 21.9822L28.8026 21.9092C29.2025 21.5329 29.4025 21.0729 29.4025 20.571C29.0426 20.2784 28.5227 20.1111 27.843 20.1111M22.1249 14.9257H20.1255V18.2713H22.1249C22.5647 18.2713 23.0046 18.104 23.2845 17.7695C23.9242 17.1422 23.9242 16.0968 23.3245 15.4695L23.2845 15.4277C22.9646 15.0932 22.5647 14.8841 22.1248 14.9259M37 16.8076L33.0413 26.3H31.8417L33.3212 22.9965L30.722 16.8494H32.0016L33.881 21.5747H33.921L35.7604 16.8494H37V16.8076Z" fill="#5F6368"/>
<path d="M15.3673 18.6475C15.3673 18.2712 15.3273 17.8949 15.2873 17.5185H10.2891V19.6512H13.1281C13.0082 20.3202 12.6483 20.9475 12.0885 21.3239V22.7038H13.8079C14.8076 21.742 15.3674 20.3202 15.3674 18.6476" fill="#4285F4"/>
<path d="M10.2888 24.0419C11.7283 24.0419 12.9279 23.5401 13.8076 22.7037L12.0882 21.3238C11.6083 21.6583 11.0085 21.8674 10.2888 21.8674C8.92916 21.8674 7.72955 20.9056 7.32968 19.5675H5.57031V20.9892C6.48999 22.871 8.28942 24.0419 10.2888 24.0419Z" fill="#34A853"/>
<path d="M7.32922 19.5675C7.08934 18.8984 7.08934 18.1457 7.32922 17.4348V16.0131H5.56986C4.81005 17.5603 4.81005 19.4002 5.56986 20.9892L7.32922 19.5675Z" fill="#FBBC04"/>
<path d="M10.2879 15.1767C11.0476 15.1767 11.7674 15.4695 12.3273 16.0131L13.8468 14.4241C12.887 13.5041 11.6075 12.9605 10.3278 13.0022C8.32848 13.0022 6.48912 14.1732 5.60938 16.0549L7.3688 17.4767C7.72867 16.1385 8.92829 15.1767 10.2879 15.1767Z" fill="#EA4335"/>
</svg>
