<svg width="24" height="24" viewBox="0 0 24 24" fill="none" xmlns="http://www.w3.org/2000/svg">
<path d="M1 8.475C1 6.90833 1.525 5.60433 2.575 4.563C3.625 3.52167 4.93333 3.00067 6.5 3C7.36667 3 8.19167 3.18333 8.975 3.55C9.75833 3.91667 10.4333 4.43333 11 5.1C11.5667 4.43333 12.2417 3.91667 13.025 3.55C13.8083 3.18333 14.6333 3 15.5 3C16.6833 3 17.7 3.296 18.55 3.888C19.4 4.48 20.0417 5.24233 20.475 6.175C20.5917 6.425 20.6 6.67933 20.5 6.938C20.4 7.19667 20.225 7.384 19.975 7.5C19.725 7.616 19.4707 7.62433 19.212 7.525C18.9533 7.42567 18.766 7.25067 18.65 7C18.35 6.33333 17.9083 5.83333 17.325 5.5C16.7417 5.16667 16.1333 5 15.5 5C14.7333 5 14.0333 5.21667 13.4 5.65C12.7667 6.08333 12.2167 6.61667 11.75 7.25C11.6667 7.38333 11.5583 7.47933 11.425 7.538C11.2917 7.59667 11.15 7.62533 11 7.624C10.85 7.62267 10.7083 7.58933 10.575 7.524C10.4417 7.45867 10.3333 7.367 10.25 7.249C9.78333 6.61567 9.23333 6.08233 8.6 5.649C7.96667 5.21567 7.26667 4.99933 6.5 5C5.55 5 4.72933 5.32933 4.038 5.988C3.34667 6.64667 3.00067 7.47533 3 8.474C3 9.024 3.11667 9.58233 3.35 10.149C3.58333 10.7157 4 11.37 4.6 12.112C5.2 12.854 6.01667 13.7207 7.05 14.712C8.08333 15.7033 9.4 16.8993 11 18.3L13.225 16.35C13.425 16.1667 13.6583 16.0833 13.925 16.1C14.1917 16.1167 14.4167 16.2167 14.6 16.4C14.8 16.6 14.896 16.846 14.888 17.138C14.88 17.43 14.7673 17.6673 14.55 17.85L12.325 19.825C12.1417 19.9917 11.9333 20.1167 11.7 20.2C11.4667 20.2833 11.2333 20.325 11 20.325C10.7667 20.325 10.5333 20.2833 10.3 20.2C10.0667 20.1167 9.85833 19.9833 9.675 19.8C8.925 19.1333 8.05433 18.375 7.063 17.525C6.07167 16.675 5.12567 15.7627 4.225 14.788C3.32433 13.8133 2.562 12.7923 1.938 11.725C1.314 10.6577 1.00133 9.57433 1 8.475ZM18 14H16C15.7167 14 15.4793 13.904 15.288 13.712C15.0967 13.52 15.0007 13.2827 15 13C14.9993 12.7173 15.0953 12.48 15.288 12.288C15.4807 12.096 15.718 12 16 12H18V10C18 9.71667 18.096 9.47933 18.288 9.288C18.48 9.09667 18.7173 9.00067 19 9C19.2827 8.99933 19.5203 9.09533 19.713 9.288C19.9057 9.48067 20.0013 9.718 20 10V12H22C22.2833 12 22.521 12.096 22.713 12.288C22.905 12.48 23.0007 12.7173 23 13C22.9993 13.2827 22.9033 13.5203 22.712 13.713C22.5207 13.9057 22.2833 14.0013 22 14H20V16C20 16.2833 19.904 16.521 19.712 16.713C19.52 16.905 19.2827 17.0007 19 17C18.7173 16.9993 18.48 16.9033 18.288 16.712C18.096 16.5207 18 16.2833 18 16V14Z" fill="#B18A53"/>
</svg>
