<svg width="25" height="24" viewBox="0 0 25 24" fill="none" xmlns="http://www.w3.org/2000/svg">
<path d="M1.125 8.475C1.125 6.90833 1.65 5.60433 2.7 4.563C3.75 3.52167 5.05833 3.00067 6.625 3C7.49167 3 8.31667 3.18333 9.1 3.55C9.88333 3.91667 10.5583 4.43333 11.125 5.1C11.6917 4.43333 12.3667 3.91667 13.15 3.55C13.9333 3.18333 14.7583 3 15.625 3C16.8083 3 17.825 3.296 18.675 3.888C19.525 4.48 20.1667 5.24233 20.6 6.175C20.7167 6.425 20.725 6.67933 20.625 6.938C20.525 7.19667 20.35 7.384 20.1 7.5C19.85 7.616 19.5957 7.62433 19.337 7.525C19.0783 7.42567 18.891 7.25067 18.775 7C18.475 6.33333 18.0333 5.83333 17.45 5.5C16.8667 5.16667 16.2583 5 15.625 5C14.8583 5 14.1583 5.21667 13.525 5.65C12.8917 6.08333 12.3417 6.61667 11.875 7.25C11.7917 7.38333 11.6833 7.47933 11.55 7.538C11.4167 7.59667 11.275 7.62533 11.125 7.624C10.975 7.62267 10.8333 7.58933 10.7 7.524C10.5667 7.45867 10.4583 7.367 10.375 7.249C9.90833 6.61567 9.35833 6.08233 8.725 5.649C8.09167 5.21567 7.39167 4.99933 6.625 5C5.675 5 4.85433 5.32933 4.163 5.988C3.47167 6.64667 3.12567 7.47533 3.125 8.474C3.125 9.024 3.24167 9.58233 3.475 10.149C3.70833 10.7157 4.125 11.37 4.725 12.112C5.325 12.854 6.14167 13.7207 7.175 14.712C8.20833 15.7033 9.525 16.8993 11.125 18.3L13.35 16.35C13.55 16.1667 13.7833 16.0833 14.05 16.1C14.3167 16.1167 14.5417 16.2167 14.725 16.4C14.925 16.6 15.021 16.846 15.013 17.138C15.005 17.43 14.8923 17.6673 14.675 17.85L12.45 19.825C12.2667 19.9917 12.0583 20.1167 11.825 20.2C11.5917 20.2833 11.3583 20.325 11.125 20.325C10.8917 20.325 10.6583 20.2833 10.425 20.2C10.1917 20.1167 9.98333 19.9833 9.8 19.8C9.05 19.1333 8.17933 18.375 7.188 17.525C6.19667 16.675 5.25067 15.7627 4.35 14.788C3.44933 13.8133 2.687 12.7923 2.063 11.725C1.439 10.6577 1.12633 9.57433 1.125 8.475ZM18.125 14H16.125C15.8417 14 15.6043 13.904 15.413 13.712C15.2217 13.52 15.1257 13.2827 15.125 13C15.1243 12.7173 15.2203 12.48 15.413 12.288C15.6057 12.096 15.843 12 16.125 12H18.125V10C18.125 9.71667 18.221 9.47933 18.413 9.288C18.605 9.09667 18.8423 9.00067 19.125 9C19.4077 8.99933 19.6453 9.09533 19.838 9.288C20.0307 9.48067 20.1263 9.718 20.125 10V12H22.125C22.4083 12 22.646 12.096 22.838 12.288C23.03 12.48 23.1257 12.7173 23.125 13C23.1243 13.2827 23.0283 13.5203 22.837 13.713C22.6457 13.9057 22.4083 14.0013 22.125 14H20.125V16C20.125 16.2833 20.029 16.521 19.837 16.713C19.645 16.905 19.4077 17.0007 19.125 17C18.8423 16.9993 18.605 16.9033 18.413 16.712C18.221 16.5207 18.125 16.2833 18.125 16V14Z" fill="#636363"/>
</svg>
