<svg width="41" height="40" viewBox="0 0 41 40" fill="none" xmlns="http://www.w3.org/2000/svg">
<g clip-path="url(#clip0_675_2068)">
<path d="M38.5 27.2264C38.5 30.0412 35.852 32.3333 32.6002 32.3333H0.5V12.1069C0.5 9.29211 3.14798 7 6.3998 7H38.5V27.2264Z" fill="white"/>
<path d="M27.5254 23.0851H29.6594C29.7204 23.0851 29.8626 23.0652 29.9237 23.0652C30.3302 22.9851 30.6757 22.6246 30.6757 22.1241C30.6757 21.6437 30.3302 21.2833 29.9237 21.1832C29.8626 21.1631 29.7408 21.1631 29.6595 21.1631H27.5255L27.5254 23.0851Z" fill="url(#paint0_linear_675_2068)"/>
<path d="M29.4146 8.58478C27.3822 8.58478 25.7156 10.27 25.7156 12.371V16.3028H30.9389C31.0609 16.3028 31.2031 16.3028 31.3047 16.3236C32.4835 16.3861 33.3575 17.0101 33.3575 18.0917C33.3575 18.9447 32.7681 19.6728 31.6706 19.8185V19.86C32.8696 19.9432 33.7843 20.6298 33.7843 21.6907C33.7843 22.8349 32.7681 23.5838 31.4267 23.5838H25.6953V31.281H31.1218C33.1542 31.281 34.8209 29.5959 34.8209 27.4947V8.58478H29.4146Z" fill="url(#paint1_linear_675_2068)"/>
<path d="M30.4114 19.2012C30.4114 18.7207 30.0659 18.4003 29.6594 18.3401C29.6188 18.3401 29.5171 18.3202 29.4562 18.3202H27.5254V20.082H29.4562C29.5173 20.082 29.6391 20.082 29.6595 20.062C30.066 20.0019 30.4115 19.6817 30.4115 19.2011" fill="url(#paint2_linear_675_2068)"/>
<path d="M8.96932 8.58334C6.93692 8.58334 5.27026 10.2685 5.27026 12.3696V21.7102C6.30686 22.2302 7.38397 22.5631 8.46122 22.5631C9.74161 22.5631 10.4326 21.7726 10.4326 20.6908V16.2805H13.6032V20.6699C13.6032 22.3758 12.5667 23.7697 9.05063 23.7697C6.91666 23.7697 5.25 23.2911 5.25 23.2911V31.2587H10.6765C12.7089 31.2587 14.3756 29.5736 14.3756 27.4724V8.58361L8.96932 8.58334Z" fill="url(#paint3_linear_675_2068)"/>
<path d="M19.1932 8.58627C17.1608 8.58627 15.4941 10.2715 15.4941 12.3725V17.3236C16.4292 16.5123 18.055 15.9922 20.6769 16.117C22.0792 16.1795 23.5831 16.5747 23.5831 16.5747V18.1766C22.8311 17.7813 21.937 17.4276 20.7784 17.3444C18.7867 17.1988 17.5876 18.1973 17.5876 19.9447C17.5876 21.713 18.7867 22.7116 20.7784 22.5451C21.937 22.4619 22.8312 22.0875 23.5831 21.713V23.3149C23.5831 23.3149 22.0995 23.7101 20.6769 23.7726C18.055 23.8973 16.4292 23.3772 15.4943 22.566V31.3032H20.9208C22.9532 31.3032 24.6197 29.6181 24.6197 27.517V8.58654L19.1932 8.58627Z" fill="url(#paint4_linear_675_2068)"/>
</g>
<defs>
<linearGradient id="paint0_linear_675_2068" x1="-153.702" y1="117.502" x2="759.629" y2="117.502" gradientUnits="userSpaceOnUse">
<stop stop-color="#007940"/>
<stop offset="0.2285" stop-color="#00873F"/>
<stop offset="0.7433" stop-color="#40A737"/>
<stop offset="1" stop-color="#5CB531"/>
</linearGradient>
<linearGradient id="paint1_linear_675_2068" x1="27.3653" y1="1142.49" x2="940.743" y2="1142.49" gradientUnits="userSpaceOnUse">
<stop stop-color="#007940"/>
<stop offset="0.2285" stop-color="#00873F"/>
<stop offset="0.7433" stop-color="#40A737"/>
<stop offset="1" stop-color="#5CB531"/>
</linearGradient>
<linearGradient id="paint2_linear_675_2068" x1="-153.729" y1="106.161" x2="759.652" y2="106.161" gradientUnits="userSpaceOnUse">
<stop stop-color="#007940"/>
<stop offset="0.2285" stop-color="#00873F"/>
<stop offset="0.7433" stop-color="#40A737"/>
<stop offset="1" stop-color="#5CB531"/>
</linearGradient>
<linearGradient id="paint3_linear_675_2068" x1="6.8561" y1="1142.49" x2="934.306" y2="1142.49" gradientUnits="userSpaceOnUse">
<stop stop-color="#1F286F"/>
<stop offset="0.4751" stop-color="#004E94"/>
<stop offset="0.8261" stop-color="#0066B1"/>
<stop offset="1" stop-color="#006FBC"/>
</linearGradient>
<linearGradient id="paint4_linear_675_2068" x1="10.2378" y1="1142.48" x2="911.013" y2="1142.48" gradientUnits="userSpaceOnUse">
<stop stop-color="#6C2C2F"/>
<stop offset="0.1735" stop-color="#882730"/>
<stop offset="0.5731" stop-color="#BE1833"/>
<stop offset="0.8585" stop-color="#DC0436"/>
<stop offset="1" stop-color="#E60039"/>
</linearGradient>
<clipPath id="clip0_675_2068">
<rect width="40" height="40" fill="white" transform="translate(0.5)"/>
</clipPath>
</defs>
</svg>
