<svg width="24" height="24" viewBox="0 0 24 24" fill="none" xmlns="http://www.w3.org/2000/svg">
<path d="M8.6916 10.5231L15.3082 7.20002M8.6916 13.4769L15.3082 16.8M5.72298 15.3231C6.15937 15.3231 6.59149 15.2371 6.99467 15.0701C7.39784 14.9031 7.76417 14.6584 8.07275 14.3498C8.38133 14.0412 8.6261 13.6749 8.7931 13.2717C8.9601 12.8685 9.04606 12.4364 9.04606 12C9.04606 11.5636 8.9601 11.1315 8.7931 10.7283C8.6261 10.3252 8.38133 9.95883 8.07275 9.65025C7.76417 9.34168 7.39784 9.0969 6.99467 8.9299C6.59149 8.7629 6.15937 8.67695 5.72298 8.67695C4.84164 8.67695 3.99641 9.02706 3.37321 9.65025C2.75001 10.2735 2.3999 11.1187 2.3999 12C2.3999 12.8814 2.75001 13.7266 3.37321 14.3498C3.99641 14.973 4.84164 15.3231 5.72298 15.3231ZM18.2768 21.6C19.1582 21.6 20.0034 21.2499 20.6266 20.6267C21.2498 20.0035 21.5999 19.1583 21.5999 18.2769C21.5999 17.3956 21.2498 16.5504 20.6266 15.9272C20.0034 15.304 19.1582 14.9539 18.2768 14.9539C17.3955 14.9539 16.5503 15.304 15.9271 15.9272C15.3039 16.5504 14.9537 17.3956 14.9537 18.2769C14.9537 19.1583 15.3039 20.0035 15.9271 20.6267C16.5503 21.2499 17.3955 21.6 18.2768 21.6ZM18.2768 9.04618C19.1582 9.04618 20.0034 8.69607 20.6266 8.07287C21.2498 7.44967 21.5999 6.60444 21.5999 5.7231C21.5999 4.84177 21.2498 3.99653 20.6266 3.37333C20.0034 2.75013 19.1582 2.40002 18.2768 2.40002C17.3955 2.40002 16.5503 2.75013 15.9271 3.37333C15.3039 3.99653 14.9537 4.84177 14.9537 5.7231C14.9537 6.60444 15.3039 7.44967 15.9271 8.07287C16.5503 8.69607 17.3955 9.04618 18.2768 9.04618Z" stroke="#B18A53" stroke-width="2" stroke-linecap="round" stroke-linejoin="round"/>
</svg>
