<svg width="25" height="24" viewBox="0 0 25 24" fill="none" xmlns="http://www.w3.org/2000/svg">
<path d="M8.375 3V7M12.375 7V3M16.375 3V7M8.375 11H16.375M8.375 15H12.375M6.375 21H18.375C18.9054 21 19.4141 20.7893 19.7892 20.4142C20.1643 20.0391 20.375 19.5304 20.375 19V7C20.375 6.46957 20.1643 5.96086 19.7892 5.58579C19.4141 5.21071 18.9054 5 18.375 5H6.375C5.84457 5 5.33586 5.21071 4.96079 5.58579C4.58571 5.96086 4.375 6.46957 4.375 7V19C4.375 19.5304 4.58571 20.0391 4.96079 20.4142C5.33586 20.7893 5.84457 21 6.375 21Z" stroke="#636363" stroke-width="1.8" stroke-linecap="round" stroke-linejoin="round"/>
</svg>
