<svg width="41" height="40" viewBox="0 0 41 40" fill="none" xmlns="http://www.w3.org/2000/svg">
<rect x="1.5" y="1" width="38" height="38" rx="19" stroke="#B18A53" stroke-width="2"/>
<g clip-path="url(#clip0_559_1314)">
<path d="M14.75 20C17.4098 20 19.5625 17.8473 19.5625 15.1875C19.5625 12.5277 17.4098 10.375 14.75 10.375C12.0902 10.375 9.9375 12.5277 9.9375 15.1875C9.9375 17.8473 12.0902 20 14.75 20ZM18.05 21.375H17.6934C16.7996 21.8047 15.807 22.0625 14.75 22.0625C13.693 22.0625 12.7047 21.8047 11.8066 21.375H11.45C8.71719 21.375 6.5 23.5922 6.5 26.325V27.5625C6.5 28.7012 7.42383 29.625 8.5625 29.625H20.9375C22.0762 29.625 23 28.7012 23 27.5625V26.325C23 23.5922 20.7828 21.375 18.05 21.375ZM27.125 20C29.4023 20 31.25 18.1523 31.25 15.875C31.25 13.5977 29.4023 11.75 27.125 11.75C24.8477 11.75 23 13.5977 23 15.875C23 18.1523 24.8477 20 27.125 20ZM29.1875 21.375H29.0242C28.427 21.5813 27.7953 21.7188 27.125 21.7188C26.4547 21.7188 25.823 21.5813 25.2258 21.375H25.0625C24.1859 21.375 23.3781 21.6285 22.6691 22.0367C23.7176 23.1668 24.375 24.6664 24.375 26.325V27.975C24.375 28.0695 24.3535 28.1598 24.3492 28.25H31.9375C33.0762 28.25 34 27.3262 34 26.1875C34 23.5277 31.8473 21.375 29.1875 21.375Z" fill="#B18A53"/>
</g>
<path d="M6.5 6L34.7843 34.2843" stroke="#B18A53" stroke-width="2"/>
<defs>
<clipPath id="clip0_559_1314">
<rect width="27.5" height="22" fill="white" transform="translate(6.5 9)"/>
</clipPath>
</defs>
</svg>
