<svg width="24" height="24" viewBox="0 0 24 24" fill="none" xmlns="http://www.w3.org/2000/svg">
<path d="M15.0799 10.2C15.0799 10.9638 14.7765 11.6964 14.2364 12.2365C13.6963 12.7766 12.9638 13.08 12.1999 13.08C11.4361 13.08 10.7036 12.7766 10.1635 12.2365C9.62337 11.6964 9.31995 10.9638 9.31995 10.2C9.31995 9.43618 9.62337 8.70364 10.1635 8.16354C10.7036 7.62343 11.4361 7.32001 12.1999 7.32001C12.9638 7.32001 13.6963 7.62343 14.2364 8.16354C14.7765 8.70364 15.0799 9.43618 15.0799 10.2Z" stroke="#636363" stroke-width="1.8" stroke-linecap="round" stroke-linejoin="round"/>
<path d="M19.4 10.2C19.4 17.0563 12.2 21 12.2 21C12.2 21 5 17.0563 5 10.2C5 8.29044 5.75857 6.45909 7.10883 5.10883C8.45909 3.75857 10.2904 3 12.2 3C14.1096 3 15.9409 3.75857 17.2912 5.10883C18.6414 6.45909 19.4 8.29044 19.4 10.2Z" stroke="#636363" stroke-width="1.8" stroke-linecap="round" stroke-linejoin="round"/>
</svg>
