<?xml version="1.0" encoding="UTF-8"?>
<svg id="_圖層_1" data-name="圖層_1" xmlns="http://www.w3.org/2000/svg" version="1.1" viewBox="0 0 1133.9 1133.9">
  <!-- Generator: Adobe Illustrator 29.5.1, SVG Export Plug-In . SVG Version: 2.1.0 Build 141)  -->
  <defs>
    <style>
      .st0, .st1 {
        fill: #fdfbfa;
      }

      .st2, .st1 {
        fill-rule: evenodd;
      }
    </style>
  </defs>
  <g>
    <path class="st0" d="M155.9,1068.2l68.9-138.6h-60.5v-30.4h110.3l-68.9,138.6h65v30.4h-114.8Z"/>
    <path class="st0" d="M355.4,1072.2c-11.9,0-22.5-2.4-31.7-7.3-9.3-4.9-16.6-11.9-21.9-20.9-5.3-9.1-8-19.9-8-32.6v-112.1h34.9v110.5c0,9.1,2.5,16.4,7.6,21.8,5.1,5.4,11.6,8.1,19.6,8.1s14.4-2.6,19.5-7.8c5.1-5.2,7.7-12.2,7.7-20.9v-111.6h33.8v111.6c0,12.8-2.6,23.8-7.9,33-5.3,9.2-12.5,16.2-21.7,21.1-9.2,4.9-19.9,7.3-32,7.3Z"/>
    <path class="st0" d="M448.6,1068.2v-169.1h90.2v28.2h-57.5v27h51.8v28.2h-51.8v85.7h-32.7Z"/>
    <path class="st0" d="M528.6,1068.2l74.6-175.1h.4l74.6,175.1h-34l-12.6-30.1h-57.5l-12.6,30.1h-32.9ZM585.3,1011.1h34.9l-7.3-17.3c-2-4.6-3.9-9.1-5.5-13.4-1.7-4.3-3.3-9.4-4.8-15.1-1.4,5.6-2.9,10.6-4.5,15-1.6,4.4-3.4,8.9-5.4,13.5l-7.3,17.3Z"/>
    <path class="st0" d="M831.4,1073.9l-101.4-101.2v95.6h-31.6v-174.7l101.4,101.1v-95.4h31.6v174.7Z"/>
    <path class="st0" d="M950.9,1071.6c-12.8,0-24.7-2.2-35.8-6.5-11.1-4.3-20.8-10.4-29.1-18.3-8.3-7.9-14.8-17.2-19.4-27.8-4.6-10.6-7-22.3-7-34.9s2.3-24.3,7-35c4.6-10.7,11.1-20,19.4-28,8.3-8,18-14.1,28.9-18.6,11-4.4,22.8-6.7,35.6-6.7s22.3,1.8,32.3,5.4c10,3.6,18.9,8.8,26.7,15.4l-9.6,38.7c-4.8-7.8-11.3-14.3-19.6-19.6-8.3-5.3-18.3-8-29.8-8s-20.2,2.4-28.6,7.3c-8.4,4.9-15,11.6-19.8,20.1-4.8,8.5-7.2,18.2-7.2,28.9s2.4,20.8,7.2,29.2c4.8,8.5,11.4,15.1,19.8,19.9,8.4,4.8,17.8,7.2,28.4,7.2s9.9-.5,14.3-1.5c4.4-1,8.3-2.5,11.8-4.5v-32.7h-34.4v-28.2h65.2v82.1c-7.8,5-16.4,8.9-26,11.7-9.6,2.8-19.7,4.2-30.3,4.2Z"/>
  </g>
  <g>
    <path class="st2" d="M-2412.9,69.2c-11.9-11.5-28-18-44.8-18s-32.9,6.5-44.8,18l-380.3,368.6c-11.5,11.6-17.9,27.1-17.8,43.2.1,16.1,6.8,31.5,18.6,42.9,11.8,11.4,27.7,17.9,44.3,18,16.6.1,32.6-6.1,44.6-17.2l18.6-18v281.8c0,16.3,6.7,31.9,18.6,43.4,11.9,11.5,28,18,44.8,18h298.7v-306.4c0-18,22.2-48.5,44.4-48.5h221.9l24.1,29.8c5.8,5.9,12.8,10.5,20.6,13.8,7.7,3.2,16,4.9,24.5,5,8.4,0,16.8-1.5,24.6-4.6,7.8-3.1,14.9-7.6,20.8-13.4,6-5.8,10.7-12.6,13.8-20.2,3.2-7.6,4.8-15.6,4.7-23.8,0-8.2-1.8-16.2-5.1-23.7-3.3-7.5-8.2-14.3-14.2-19.9l-380.3-368.6Z"/>
    <path d="M-2257.3,539.3c-60.2,0-110.9,50-110.9,108.7s110.9,201.9,110.9,201.9c0,0,110.9-120.8,110.9-201.9s-50.7-108.7-110.9-108.7ZM-2257.3,688.7c-22.2,0-38-18.6-38-37.3s19-37.3,38-37.3,38,18.3,38,37.3c3.2,18.6-15.8,37.3-38,37.3Z"/>
  </g>
  <g>
    <path d="M-2867.9,1068.2l68.9-138.6h-60.5v-30.4h110.3l-68.9,138.6h65v30.4h-114.8Z"/>
    <path d="M-2668.4,1072.2c-11.9,0-22.5-2.4-31.7-7.3-9.3-4.9-16.6-11.9-21.9-20.9-5.3-9.1-8-19.9-8-32.6v-112.1h34.9v110.5c0,9.1,2.5,16.4,7.6,21.8,5.1,5.4,11.6,8.1,19.6,8.1s14.4-2.6,19.5-7.8c5.1-5.2,7.7-12.2,7.7-20.9v-111.6h33.8v111.6c0,12.8-2.6,23.8-7.9,33-5.3,9.2-12.5,16.2-21.7,21.1-9.2,4.9-19.9,7.3-32,7.3Z"/>
    <path d="M-2575.3,1068.2v-169.1h90.2v28.2h-57.5v27h51.8v28.2h-51.8v85.7h-32.7Z"/>
    <path d="M-2495.3,1068.2l74.6-175.1h.4l74.6,175.1h-34l-12.6-30.1h-57.5l-12.6,30.1h-32.9ZM-2438.5,1011.1h34.9l-7.3-17.3c-2-4.6-3.9-9.1-5.5-13.4-1.7-4.3-3.3-9.4-4.8-15.1-1.4,5.6-2.9,10.6-4.5,15-1.6,4.4-3.4,8.9-5.4,13.5l-7.3,17.3Z"/>
    <path d="M-2192.5,1073.9l-101.4-101.2v95.6h-31.6v-174.7l101.4,101.1v-95.4h31.6v174.7Z"/>
    <path d="M-2073,1071.6c-12.8,0-24.7-2.2-35.8-6.5-11.1-4.3-20.8-10.4-29.1-18.3-8.3-7.9-14.8-17.2-19.4-27.8-4.6-10.6-7-22.3-7-34.9s2.3-24.3,7-35c4.6-10.7,11.1-20,19.4-28,8.3-8,18-14.1,28.9-18.6,11-4.4,22.8-6.7,35.6-6.7s22.3,1.8,32.3,5.4c10,3.6,18.9,8.8,26.7,15.4l-9.6,38.7c-4.8-7.8-11.3-14.3-19.6-19.6-8.3-5.3-18.3-8-29.8-8s-20.2,2.4-28.6,7.3c-8.4,4.9-15,11.6-19.8,20.1-4.8,8.5-7.2,18.2-7.2,28.9s2.4,20.8,7.2,29.2c4.8,8.5,11.4,15.1,19.8,19.9,8.4,4.8,17.8,7.2,28.4,7.2s9.9-.5,14.3-1.5c4.4-1,8.3-2.5,11.8-4.5v-32.7h-34.4v-28.2h65.2v82.1c-7.8,5-16.4,8.9-26,11.7-9.6,2.8-19.7,4.2-30.3,4.2Z"/>
  </g>
  <g>
    <path class="st1" d="M607.4,250.8c18.3-12.5,22.2,0,44.4,22.2l177.5,177.5,68.5,74.1c5.8,5.9,12.8,10.5,20.6,13.8,7.7,3.2,16.1,4.9,24.5,5,8.4,0,16.8-1.5,24.6-4.6,7.8-3.1,14.9-7.6,20.8-13.4,6-5.8,10.7-12.6,13.8-20.2,3.2-7.6,4.8-15.6,4.7-23.8,0-8.2-1.8-16.2-5.1-23.7-3.3-7.5-8.2-14.3-14.2-19.9L607,69.2c-11.9-11.5-28-18-44.8-18s-32.9,6.5-44.8,18L137.1,437.8c-11.5,11.6-17.9,27.1-17.8,43.2.1,16.1,6.8,31.5,18.6,42.9,11.8,11.4,27.7,17.9,44.3,18,16.6.1,32.6-6.1,44.6-17.2l46.3-31.8"/>
    <path class="st0" d="M598.8,430.9c-78.4,0-144.5,65.1-144.5,141.6s144.5,262.9,144.5,262.9c0,0,144.5-157.3,144.5-262.9s-66-141.6-144.5-141.6ZM598.8,625.4c-28.9,0-49.5-24.3-49.5-48.5s24.8-48.5,49.5-48.5,49.5,23.9,49.5,48.5c4.1,24.3-20.6,48.5-49.5,48.5Z"/>
  </g>
  <g>
    <path d="M-1337.7,1068.2l68.9-138.6h-60.5v-30.4h110.3l-68.9,138.6h65v30.4h-114.8Z"/>
    <path d="M-1138.2,1072.2c-11.9,0-22.5-2.4-31.7-7.3-9.3-4.9-16.6-11.9-21.9-20.9-5.3-9.1-8-19.9-8-32.6v-112.1h34.9v110.5c0,9.1,2.5,16.4,7.6,21.8,5.1,5.4,11.6,8.1,19.6,8.1s14.4-2.6,19.5-7.8c5.1-5.2,7.7-12.2,7.7-20.9v-111.6h33.8v111.6c0,12.8-2.6,23.8-7.9,33-5.3,9.2-12.5,16.2-21.7,21.1-9.2,4.9-19.9,7.3-32,7.3Z"/>
    <path d="M-1045,1068.2v-169.1h90.2v28.2h-57.5v27h51.8v28.2h-51.8v85.7h-32.7Z"/>
    <path d="M-965,1068.2l74.6-175.1h.4l74.6,175.1h-34l-12.6-30.1h-57.5l-12.6,30.1h-32.9ZM-908.3,1011.1h34.9l-7.3-17.3c-2-4.6-3.9-9.1-5.5-13.4-1.7-4.3-3.3-9.4-4.8-15.1-1.4,5.6-2.9,10.6-4.5,15-1.6,4.4-3.4,8.9-5.4,13.5l-7.3,17.3Z"/>
    <path d="M-662.2,1073.9l-101.4-101.2v95.6h-31.6v-174.7l101.4,101.1v-95.4h31.6v174.7Z"/>
    <path d="M-542.7,1071.6c-12.8,0-24.7-2.2-35.8-6.5-11.1-4.3-20.8-10.4-29.1-18.3-8.3-7.9-14.8-17.2-19.4-27.8-4.6-10.6-7-22.3-7-34.9s2.3-24.3,7-35c4.6-10.7,11.1-20,19.4-28,8.3-8,18-14.1,28.9-18.6,11-4.4,22.8-6.7,35.6-6.7s22.3,1.8,32.3,5.4c10,3.6,18.9,8.8,26.7,15.4l-9.6,38.7c-4.8-7.8-11.3-14.3-19.6-19.6-8.3-5.3-18.3-8-29.8-8s-20.2,2.4-28.6,7.3c-8.4,4.9-15,11.6-19.8,20.1-4.8,8.5-7.2,18.2-7.2,28.9s2.4,20.8,7.2,29.2c4.8,8.5,11.4,15.1,19.8,19.9,8.4,4.8,17.8,7.2,28.4,7.2s9.9-.5,14.3-1.5c4.4-1,8.3-2.5,11.8-4.5v-32.7h-34.4v-28.2h65.2v82.1c-7.8,5-16.4,8.9-26,11.7-9.6,2.8-19.7,4.2-30.3,4.2Z"/>
  </g>
  <g>
    <path class="st2" d="M-882.6,69.2c-11.9-11.5-28-18-44.8-18s-32.9,6.5-44.8,18l-380.3,368.6c-11.5,11.6-17.9,27.1-17.8,43.2.1,16.1,6.8,31.5,18.6,42.9,11.8,11.4,27.7,17.9,44.3,18,16.6.1,32.6-6.1,44.6-17.2l18.6-18v281.8c0,16.3,6.7,31.9,18.6,43.4,11.9,11.5,28,18,44.8,18h298.7v-44.4c0-44.4,0-532.5,0-554.6s22.2,0,44.4,22.2l177.5,177.5,68.5,74.1c5.8,5.9,12.8,10.5,20.6,13.8,7.7,3.2,16.1,4.9,24.5,5,8.4,0,16.8-1.5,24.6-4.6,7.8-3.1,14.9-7.6,20.8-13.4,6-5.8,10.7-12.6,13.8-20.2,3.2-7.6,4.8-15.6,4.7-23.8,0-8.2-1.8-16.2-5.1-23.7-3.3-7.5-8.2-14.3-14.2-19.9L-882.6,69.2Z"/>
    <path d="M-727,539.3c-60.2,0-110.9,50-110.9,108.7s110.9,201.9,110.9,201.9c0,0,110.9-120.8,110.9-201.9s-50.7-108.7-110.9-108.7ZM-727,688.7c-22.2,0-38-18.6-38-37.3s19-37.3,38-37.3,38,18.3,38,37.3c3.2,18.6-15.8,37.3-38,37.3Z"/>
  </g>
  <path class="st1" d="M517.4,690.3l-198.1-5-6.8-224c0-14.8-13.1-26.9-29.3-26.9s-29.3,12-29.3,26.9l-4.9,255.8c0,18,15.9,32.7,35.6,32.7s1.3,0,1.9,0l230.8-5.8c16.2,0,29.3-12,29.3-26.9s-13.1-26.9-29.3-26.9Z"/>
</svg>