<svg width="41" height="40" viewBox="0 0 41 40" fill="none" xmlns="http://www.w3.org/2000/svg">
<path d="M9.05024 34.3868V32.4986C9.05024 31.7747 8.61754 31.3027 7.87585 31.3027C7.50508 31.3027 7.10334 31.4286 6.82519 31.8377C6.60898 31.4915 6.3 31.3027 5.83646 31.3027C5.52735 31.3027 5.21851 31.3971 4.97119 31.7433V31.3657H4.32227V34.3868H4.97119V32.7188C4.97119 32.184 5.24934 31.9321 5.68205 31.9321C6.11447 31.9321 6.33097 32.2154 6.33097 32.7188V34.3868H6.97989V32.7188C6.97989 32.184 7.28873 31.9321 7.69047 31.9321C8.12317 31.9321 8.33939 32.2154 8.33939 32.7188V34.3868H9.05024ZM18.6603 31.3657H17.6098V30.453H16.9609V31.3657H16.3738V31.9635H16.9608V33.3483C16.9608 34.0408 17.2389 34.4498 17.9806 34.4498C18.2587 34.4498 18.5676 34.3554 18.7841 34.2296L18.5985 33.663C18.4132 33.7889 18.1969 33.8204 18.0424 33.8204C17.7334 33.8204 17.6098 33.6316 17.6098 33.3168V31.9635H18.6603V31.3657ZM24.1608 31.3026C23.7901 31.3026 23.5429 31.4915 23.3883 31.7433V31.3657H22.7394V34.3868H23.3883V32.6874C23.3883 32.184 23.6045 31.9007 24.0063 31.9007C24.1299 31.9007 24.2844 31.9322 24.408 31.9636L24.5934 31.3343C24.4698 31.3027 24.2844 31.3027 24.1608 31.3027M15.8484 31.6175C15.5393 31.3972 15.1068 31.3029 14.6432 31.3029C13.9017 31.3029 13.4073 31.6805 13.4073 32.2784C13.4073 32.7821 13.7781 33.0652 14.427 33.1597L14.736 33.1912C15.0759 33.254 15.2613 33.3485 15.2613 33.5059C15.2613 33.7261 15.0141 33.8835 14.5814 33.8835C14.1487 33.8835 13.8089 33.7261 13.5926 33.5688L13.2836 34.0723C13.6235 34.324 14.0871 34.4499 14.5505 34.4499C15.4157 34.4499 15.9102 34.0409 15.9102 33.4743C15.9102 32.9393 15.5085 32.656 14.8904 32.5617L14.5814 32.5302C14.3033 32.4986 14.0871 32.4358 14.0871 32.247C14.0871 32.0267 14.3033 31.9008 14.6432 31.9008C15.0141 31.9008 15.3849 32.0581 15.5703 32.1526L15.8484 31.6175ZM33.0913 31.3029C32.7204 31.3029 32.4732 31.4917 32.3187 31.7434V31.3658H31.6697V34.387H32.3187V32.6876C32.3187 32.1841 32.535 31.9008 32.9366 31.9008C33.0604 31.9008 33.2149 31.9324 33.3385 31.9638L33.5239 31.3344C33.4003 31.3029 33.2149 31.3029 33.0913 31.3029ZM24.8098 32.8764C24.8098 33.789 25.4277 34.4499 26.3857 34.4499C26.8183 34.4499 27.1273 34.3556 27.4363 34.1038L27.1273 33.5688C26.8801 33.7576 26.6329 33.8519 26.3548 33.8519C25.8294 33.8519 25.4587 33.4743 25.4587 32.8764C25.4587 32.31 25.8294 31.9322 26.3548 31.9008C26.6329 31.9008 26.8801 31.9951 27.1273 32.1841L27.4363 31.6491C27.1273 31.3972 26.8183 31.3029 26.3857 31.3029C25.4277 31.3029 24.8098 31.9638 24.8098 32.8764ZM30.8046 32.8764V31.3658H30.1557V31.7434C29.9393 31.4603 29.6304 31.3029 29.2286 31.3029C28.3943 31.3029 27.7454 31.9638 27.7454 32.8764C27.7454 33.789 28.3943 34.4499 29.2286 34.4499C29.6612 34.4499 29.9703 34.2926 30.1557 34.0094V34.387H30.8046V32.8764ZM28.4251 32.8764C28.4251 32.3414 28.7651 31.9008 29.3212 31.9008C29.8466 31.9008 30.2175 32.31 30.2175 32.8764C30.2175 33.4114 29.8466 33.8519 29.3212 33.8519C28.7651 33.8204 28.4251 33.4114 28.4251 32.8764ZM20.669 31.3029C19.8038 31.3029 19.1857 31.9322 19.1857 32.8764C19.1857 33.8206 19.8036 34.4499 20.6999 34.4499C21.1324 34.4499 21.5651 34.324 21.9051 34.0409L21.596 33.5688C21.3488 33.7576 21.0398 33.8835 20.7308 33.8835C20.3291 33.8835 19.9274 33.6947 19.8346 33.1595H22.0287V32.9079C22.0596 31.9322 21.5035 31.3029 20.669 31.3029ZM20.6689 31.8693C21.0705 31.8693 21.3488 32.1212 21.4104 32.5932H19.8654C19.9272 32.1841 20.2054 31.8693 20.6689 31.8693ZM36.7684 32.8764V30.1699H36.1194V31.7434C35.9031 31.4603 35.5941 31.3029 35.1924 31.3029C34.3581 31.3029 33.7091 31.9638 33.7091 32.8764C33.7091 33.789 34.3581 34.4499 35.1924 34.4499C35.6251 34.4499 35.934 34.2926 36.1194 34.0094V34.387H36.7684V32.8764ZM34.389 32.8764C34.389 32.3414 34.7288 31.9008 35.2851 31.9008C35.8105 31.9008 36.1812 32.31 36.1812 32.8764C36.1812 33.4114 35.8105 33.8519 35.2851 33.8519C34.7288 33.8204 34.389 33.4114 34.389 32.8764ZM12.6963 32.8764V31.3658H12.0474V31.7434C11.831 31.4603 11.5221 31.3029 11.1203 31.3029C10.286 31.3029 9.63709 31.9638 9.63709 32.8764C9.63709 33.789 10.286 34.4499 11.1203 34.4499C11.553 34.4499 11.862 34.2926 12.0474 34.0094V34.387H12.6963V32.8764ZM10.286 32.8764C10.286 32.3414 10.626 31.9008 11.1821 31.9008C11.7074 31.9008 12.0784 32.31 12.0784 32.8764C12.0784 33.4114 11.7074 33.8519 11.1821 33.8519C10.626 33.8204 10.286 33.4114 10.286 32.8764Z" fill="black"/>
<path d="M15.6328 8.42322H25.3666V26.2358H15.6328V8.42322Z" fill="#FF5F00"/>
<path d="M16.2511 17.3296C16.2511 13.7105 17.9197 10.5004 20.4844 8.42321C18.5996 6.91263 16.2203 6 13.6246 6C7.47502 6 2.5 11.0668 2.5 17.3296C2.5 23.5924 7.47502 28.6592 13.6244 28.6592C16.2201 28.6592 18.5995 27.7465 20.4844 26.2358C17.9197 24.1902 16.2511 20.9487 16.2511 17.3296Z" fill="#EB001B"/>
<path d="M38.5 17.3296C38.5 23.5923 33.525 28.6592 27.3756 28.6592C24.7799 28.6592 22.4006 27.7465 20.5156 26.2358C23.1113 24.1588 24.7491 20.9487 24.7491 17.3296C24.7491 13.7105 23.0803 10.5004 20.5156 8.42321C22.4005 6.91263 24.7799 6 27.3756 6C33.525 6 38.5 11.0983 38.5 17.3296Z" fill="#F79E1B"/>
</svg>
