<svg width="25" height="24" viewBox="0 0 25 24" fill="none" xmlns="http://www.w3.org/2000/svg">
<path d="M16.3254 16.6015L17.1435 14.8672C17.1656 14.8176 17.2016 14.7755 17.2471 14.746C17.2926 14.7164 17.3457 14.7007 17.4 14.7007C17.4543 14.7007 17.5074 14.7164 17.5529 14.746C17.5984 14.7755 17.6344 14.8176 17.6565 14.8672L18.4755 16.6015L20.3043 16.8814C20.5392 16.9174 20.6328 17.2198 20.4636 17.3926L19.1397 18.7426L19.452 20.6488C19.4916 20.8936 19.2459 21.0808 19.0362 20.9647L17.4 20.0647L15.7638 20.9647C15.5532 21.0808 15.3084 20.8936 15.348 20.6488L15.6603 18.7426L14.3373 17.3926C14.1663 17.2198 14.2608 16.9174 14.4957 16.8814L16.3254 16.6015Z" stroke="#906433" stroke-width="1.8" stroke-linecap="round" stroke-linejoin="round"/>
<path d="M19.6498 11.9999V6.37406C19.6499 6.30302 19.6359 6.23267 19.6088 6.16703C19.5816 6.1014 19.5417 6.04177 19.4914 5.99157L16.6583 3.1584C16.5571 3.0571 16.4198 3.00013 16.2767 3H5.78999C5.64678 3 5.50943 3.05689 5.40816 3.15816C5.30689 3.25943 5.25 3.39678 5.25 3.53999V20.4598C5.25 20.603 5.30689 20.7404 5.40816 20.8416C5.50943 20.9429 5.64678 20.9998 5.78999 20.9998H11.5499" stroke="#906433" stroke-width="1.8" stroke-linecap="round" stroke-linejoin="round"/>
<path d="M16.0498 3V6.05997C16.0498 6.20318 16.1067 6.34053 16.208 6.4418C16.3092 6.54307 16.4466 6.59996 16.5898 6.59996H19.6498" stroke="#906433" stroke-width="1.8" stroke-linecap="round" stroke-linejoin="round"/>
</svg>
