<svg width="24" height="25" viewBox="0 0 24 25" fill="none" xmlns="http://www.w3.org/2000/svg">
<path d="M7.86886 17.371H9.08679M19.3396 7.93629C21.5535 10.4575 21.5535 14.5453 19.3396 17.0651M16.9692 9.59529C18.0761 11.2002 18.0761 13.8011 16.9692 15.4061M12.7406 4.58699H4.21793C3.89516 4.58699 3.58559 4.71512 3.35723 4.94321C3.12886 5.17131 3.00038 5.48073 3 5.8035V19.1979C3 19.8694 3.54494 20.4144 4.2165 20.4144H12.7392C13.0619 20.4144 13.3715 20.2862 13.5999 20.0581C13.8282 19.83 13.9567 19.5206 13.9571 19.1979V5.8035C13.9571 5.48073 13.829 5.17116 13.6009 4.9428C13.3728 4.71443 13.0633 4.58737 12.7406 4.58699Z" stroke="#474747" stroke-width="1.8" stroke-linecap="round" stroke-linejoin="round"/>
</svg>
