<svg width="24" height="24" viewBox="0 0 24 24" fill="none" xmlns="http://www.w3.org/2000/svg">
<path fill-rule="evenodd" clip-rule="evenodd" d="M12.8714 1.55762C12.7946 1.39115 12.6717 1.25016 12.5173 1.15134C12.3629 1.05252 12.1833 1 12 1C11.8167 1 11.6372 1.05252 11.4827 1.15134C11.3283 1.25016 11.2054 1.39115 11.1286 1.55762L8.3742 7.52705L1.84718 8.30154C1.66507 8.32304 1.49294 8.39626 1.35115 8.51254C1.20936 8.62882 1.10385 8.78328 1.04711 8.95765C0.990363 9.13202 0.984761 9.319 1.03097 9.49645C1.07717 9.6739 1.17324 9.83441 1.30782 9.95896L6.13518 14.4216L4.85397 20.8709C4.81838 21.0507 4.83501 21.2369 4.9019 21.4075C4.96879 21.5782 5.08313 21.7261 5.23141 21.8338C5.37969 21.9415 5.55571 22.0045 5.73865 22.0153C5.9216 22.0261 6.10383 21.9844 6.26379 21.8949L12 18.6837L17.7362 21.8949C17.8963 21.9848 18.0787 22.0268 18.262 22.0161C18.4452 22.0053 18.6215 21.9423 18.77 21.8344C18.9185 21.7265 19.0329 21.5783 19.0997 21.4074C19.1666 21.2365 19.183 21.0499 19.147 20.87L17.8658 14.4226L22.6922 9.95896C22.8268 9.83441 22.9228 9.6739 22.969 9.49645C23.0152 9.319 23.0096 9.13202 22.9529 8.95765C22.8962 8.78328 22.7906 8.62882 22.6489 8.51254C22.5071 8.39626 22.3349 8.32304 22.1528 8.30154L15.6248 7.52609L12.8714 1.55762Z" fill="#B18A53"/>
</svg>
