<svg width="17" height="18" viewBox="0 0 17 18" fill="none" xmlns="http://www.w3.org/2000/svg">
<g clip-path="url(#clip0_66_3736)">
<path d="M10.2474 11.014C9.83941 11.014 9.47341 10.936 9.14941 10.78C8.83741 10.612 8.54941 10.42 8.28541 10.204C8.02141 9.988 7.76341 9.802 7.51141 9.646C7.25941 9.478 6.99541 9.394 6.71941 9.394C6.43141 9.394 6.16141 9.496 5.90941 9.7C5.65741 9.904 5.42341 10.204 5.20741 10.6L3.82141 9.556C4.28941 8.812 4.77541 8.29 5.27941 7.99C5.78341 7.678 6.27541 7.522 6.75541 7.522C7.17541 7.522 7.54141 7.606 7.85341 7.774C8.16541 7.93 8.45341 8.11 8.71741 8.314C8.98141 8.518 9.23941 8.704 9.49141 8.872C9.74341 9.028 10.0074 9.106 10.2834 9.106C10.5594 9.106 10.8234 9.01 11.0754 8.818C11.3394 8.614 11.5734 8.314 11.7774 7.918L13.1814 8.98C12.7134 9.712 12.2274 10.234 11.7234 10.546C11.2314 10.858 10.7394 11.014 10.2474 11.014Z" fill="black"/>
</g>
<defs>
<clipPath id="clip0_66_3736">
<rect width="16" height="18" fill="white" transform="translate(0.5)"/>
</clipPath>
</defs>
</svg>
