<svg width="25" height="24" viewBox="0 0 25 24" fill="none" xmlns="http://www.w3.org/2000/svg">
<path d="M18.6711 20.706C18.3291 19.643 17.5751 18.703 16.5281 18.033C15.4801 17.363 14.1951 17 12.8751 17C11.5551 17 10.2701 17.363 9.2221 18.033C8.1751 18.703 7.4221 19.643 7.0791 20.706" stroke="#636363" stroke-width="2"/>
<path d="M12.875 13C14.5319 13 15.875 11.6569 15.875 10C15.875 8.34315 14.5319 7 12.875 7C11.2181 7 9.875 8.34315 9.875 10C9.875 11.6569 11.2181 13 12.875 13Z" stroke="#636363" stroke-width="2" stroke-linecap="round"/>
<path d="M18.875 3H6.875C5.21815 3 3.875 4.34315 3.875 6V18C3.875 19.6569 5.21815 21 6.875 21H18.875C20.5319 21 21.875 19.6569 21.875 18V6C21.875 4.34315 20.5319 3 18.875 3Z" stroke="#636363" stroke-width="2"/>
</svg>
