<svg width="24" height="24" viewBox="0 0 24 24" fill="none" xmlns="http://www.w3.org/2000/svg">
<path d="M17.796 20.706C17.454 19.643 16.7 18.703 15.653 18.033C14.605 17.363 13.32 17 12 17C10.68 17 9.39498 17.363 8.34698 18.033C7.29998 18.703 6.54698 19.643 6.20398 20.706" stroke="white" stroke-width="2"/>
<path d="M12 13C13.6569 13 15 11.6569 15 10C15 8.34315 13.6569 7 12 7C10.3431 7 9 8.34315 9 10C9 11.6569 10.3431 13 12 13Z" stroke="white" stroke-width="2" stroke-linecap="round"/>
<path d="M18 3H6C4.34315 3 3 4.34315 3 6V18C3 19.6569 4.34315 21 6 21H18C19.6569 21 21 19.6569 21 18V6C21 4.34315 19.6569 3 18 3Z" stroke="white" stroke-width="2"/>
</svg>
