<svg width="41" height="40" viewBox="0 0 41 40" fill="none" xmlns="http://www.w3.org/2000/svg">
<g clip-path="url(#clip0_675_2060)">
<path d="M21.1727 17.1559C21.1504 18.9669 22.7425 19.9774 23.9418 20.5783C25.1741 21.1947 25.5879 21.5901 25.5831 22.1414C25.5739 22.9851 24.6002 23.3575 23.689 23.3719C22.0993 23.3973 21.175 22.9307 20.4402 22.5778L19.8676 25.3328C20.6048 25.682 21.9699 25.9866 23.3855 26C26.7085 26 28.8825 24.3136 28.8942 21.6989C28.9072 18.3805 24.4298 18.1968 24.4604 16.7136C24.4709 16.2638 24.8883 15.7839 25.803 15.6619C26.2558 15.6002 27.5056 15.553 28.9225 16.2239L29.4787 13.5584C28.7167 13.2732 27.7373 13 26.5179 13C23.3903 13 21.1905 14.7094 21.1727 17.1559ZM34.8226 13.2296C34.2159 13.2296 33.7045 13.5935 33.4763 14.1519L28.7297 25.8042H32.0502L32.7109 23.9267H36.7685L37.1518 25.8042H40.0785L37.5246 13.2296H34.8226ZM35.2872 16.6265L36.2454 21.3484H33.621L35.2872 16.6265ZM17.1468 13.2297L14.5294 25.8041H17.6936L20.3098 13.2294L17.1468 13.2297ZM12.4659 13.2297L9.17245 21.7884L7.84021 14.5111C7.68389 13.6987 7.06656 13.2296 6.38101 13.2296H0.997282L0.921875 13.5947C2.02713 13.8413 3.2829 14.239 4.0437 14.6645C4.50929 14.9245 4.64206 15.1517 4.79502 15.7694L7.31832 25.8042H10.6621L15.7885 13.2296L12.4659 13.2297Z" fill="url(#paint0_linear_675_2060)"/>
</g>
<defs>
<linearGradient id="paint0_linear_675_2060" x1="1801.11" y1="52.078" x2="1839.79" y2="-1282.98" gradientUnits="userSpaceOnUse">
<stop stop-color="#222357"/>
<stop offset="1" stop-color="#254AA5"/>
</linearGradient>
<clipPath id="clip0_675_2060">
<rect width="40" height="40" fill="white" transform="translate(0.5)"/>
</clipPath>
</defs>
</svg>
